<svg width="1615" height="598" viewBox="0 0 1615 598" fill="none" xmlns="http://www.w3.org/2000/svg">
<path fill-rule="evenodd" clip-rule="evenodd" d="M244.46 0H1614.46V1.08033H276.861V598H265.341V1.08033H244.46V0ZM0 126H1.44L8.46 86.7597H33.84L42.66 126H54.36L26.46 0.179688H22.5L0 126ZM19.8 21.4197H20.16L21.6 28.4397L33.48 85.6797H8.64L18.54 28.4397L19.8 21.4197ZM115.246 0.179688V126H126.766V63.7197H156.646V126H168.166V0.179688H156.646V62.6397H126.766V0.179688H115.246ZM196.668 126V0.179688H235.368V1.2597H208.188V61.1997H231.588V62.2797H208.188V124.92H235.368V126H196.668Z" fill="#111111"/>
</svg>
