<svg width="300" height="203" viewBox="0 0 300 203" fill="none" xmlns="http://www.w3.org/2000/svg">
<path fill-rule="evenodd" clip-rule="evenodd" d="M95.0498 0H300V0.419635L107.648 0.419634V190.5L103.169 203V0.419634H95.0498V0ZM0 49.6009H0.559897L3.28939 34.3589H13.1576L16.5869 49.6009H21.1361L10.2881 0.728516H8.74839L0 49.6009ZM7.69858 8.9788H7.83856L8.39845 11.7056L13.0176 33.9394H3.35938L7.20867 11.7056L7.69858 8.9788ZM44.8098 0.728516V49.6009H49.289V25.4094H60.9068V49.6009H65.386V0.728516H60.9068V24.9899H49.289V0.728516H44.8098ZM76.468 49.6009V0.728516H91.5153V1.14802H80.9472V24.4306H90.0455V24.8501H80.9472V49.1814H91.5153V49.6009H76.468Z" fill="#111111"/>
</svg>
