<svg width="263" height="47" viewBox="0 0 263 47" fill="none" xmlns="http://www.w3.org/2000/svg">
<path d="M0 46.02H5.85L13.715 1.755H23.53L15.665 46.02H21.58L29.64 0.584997H8.06L0 46.02Z" fill="#111111"/>
<path d="M29.7497 34.32C29.4464 36.14 29.4247 37.8083 29.6847 39.325C29.9447 40.8417 30.4647 42.1417 31.2447 43.225C32.0247 44.265 33.0214 45.0883 34.2347 45.695C35.4914 46.2583 36.943 46.54 38.5897 46.54C40.2364 46.54 41.7964 46.2583 43.2697 45.695C44.743 45.1317 46.043 44.3083 47.1697 43.225C48.3397 42.0983 49.3147 40.7983 50.0947 39.325C50.918 37.8083 51.4814 36.14 51.7847 34.32L55.7497 11.895C56.053 10.1183 56.0747 8.515 55.8147 7.085C55.5547 5.61167 55.0347 4.355 54.2547 3.315C53.4747 2.275 52.4564 1.47333 51.1997 0.91C49.943 0.303333 48.4914 0 46.8447 0C45.2414 0 43.703 0.303333 42.2297 0.91C40.7564 1.47333 39.4347 2.275 38.2647 3.315C37.138 4.355 36.163 5.61167 35.3397 7.085C34.5597 8.515 34.018 10.1183 33.7147 11.895L29.7497 34.32ZM40.1497 8.515C40.3664 7.345 40.6697 6.305 41.0597 5.395C41.4497 4.485 41.9264 3.72667 42.4897 3.12C43.053 2.51333 43.6814 2.05833 44.3747 1.755C45.068 1.40833 45.8264 1.235 46.6497 1.235C47.473 1.235 48.1664 1.38667 48.7297 1.69C49.3364 1.99333 49.7914 2.47 50.0947 3.12C50.4414 3.72667 50.6364 4.485 50.6797 5.395C50.7664 6.305 50.7014 7.345 50.4847 8.515L45.2197 38.09C45.0464 39.26 44.7647 40.3 44.3747 41.21C43.9847 42.12 43.508 42.9 42.9447 43.55C42.4247 44.1567 41.818 44.6117 41.1247 44.915C40.4314 45.2183 39.673 45.37 38.8497 45.37C38.0264 45.37 37.3114 45.2183 36.7047 44.915C36.1414 44.6117 35.6864 44.1567 35.3397 43.55C35.0364 42.9 34.8414 42.12 34.7547 41.21C34.7114 40.3 34.798 39.26 35.0147 38.09L40.1497 8.515Z" fill="#111111"/>
<path d="M78.1666 46.02L74.2016 27.3C73.9849 26.1733 73.7032 25.2417 73.3566 24.505C73.0099 23.7683 72.5982 23.1833 72.1216 22.75C71.6882 22.2733 71.1682 21.9483 70.5616 21.775C69.9549 21.6017 69.2616 21.515 68.4816 21.515H63.8666L63.6716 22.685H65.5566C66.2066 22.7283 66.7266 22.945 67.1166 23.335C67.5499 23.725 67.8966 24.5917 68.1566 25.935L72.0566 46.02H78.1666ZM83.3666 0.584997H81.8716L66.9216 22.49L68.0916 22.88L83.3666 0.584997ZM69.2616 0.584997H63.4116L55.3516 46.02H61.2666L69.2616 0.584997Z" fill="#111111"/>
<path d="M80.5345 46.02H81.8345L86.7745 32.24H95.1595L95.9395 46.02H101.984L99.3845 0.584997H96.9145L80.5345 46.02ZM93.9245 11.895H94.3145V14.495L95.0945 31.07H87.2295L93.0795 14.495L93.9245 11.895Z" fill="#111111"/>
<path d="M113.921 46.54C115.914 46.54 117.778 46.28 119.511 45.76C121.288 45.24 122.848 44.5033 124.191 43.55C125.534 42.5967 126.661 41.4267 127.571 40.04C128.481 38.61 129.088 37.0067 129.391 35.23L129.911 32.305C130.171 30.8317 130.193 29.5317 129.976 28.405C129.759 27.2783 129.326 26.325 128.676 25.545C128.069 24.765 127.246 24.1583 126.206 23.725C125.166 23.2483 123.974 22.945 122.631 22.815L121.396 22.685L121.461 22.36L122.761 22.23C124.061 22.1 125.253 21.8183 126.336 21.385C127.463 20.9517 128.438 20.3667 129.261 19.63C130.084 18.85 130.778 17.8967 131.341 16.77C131.948 15.6433 132.381 14.365 132.641 12.935L133.031 10.595C133.334 8.94833 133.313 7.475 132.966 6.175C132.619 4.875 131.991 3.77 131.081 2.86C130.171 1.95 129.023 1.25666 127.636 0.779998C126.249 0.259999 124.668 0 122.891 0C120.854 0 118.883 0.325 116.976 0.974999C115.069 1.625 113.423 2.55667 112.036 3.77L112.751 4.615C114.008 3.66166 115.351 2.925 116.781 2.405C118.211 1.84167 119.598 1.56 120.941 1.56C123.281 1.56 125.036 2.36167 126.206 3.965C127.376 5.56833 127.701 7.8 127.181 10.66L126.726 13.195C126.206 16.055 125.188 18.2217 123.671 19.695C122.154 21.1683 120.313 21.905 118.146 21.905H116.651L116.456 23.14H117.951C119.121 23.14 120.139 23.335 121.006 23.725C121.916 24.0717 122.631 24.6133 123.151 25.35C123.714 26.0867 124.083 26.9967 124.256 28.08C124.429 29.1633 124.408 30.3983 124.191 31.785L123.541 35.36C122.978 38.48 121.678 40.9067 119.641 42.64C117.648 44.33 115.286 45.175 112.556 45.175C111.256 45.175 109.934 44.98 108.591 44.59C107.291 44.2 105.991 43.615 104.691 42.835L103.846 43.81C105.189 44.72 106.728 45.4133 108.461 45.89C110.194 46.3233 112.014 46.54 113.921 46.54Z" fill="#111111"/>
<path d="M128.967 46.02H130.267L135.207 32.24H143.592L144.372 46.02H150.417L147.817 0.584997H145.347L128.967 46.02ZM142.357 11.895H142.747V14.495L143.527 31.07H135.662L141.512 14.495L142.357 11.895Z" fill="#111111"/>
<path d="M150.679 45.305C151.329 45.7383 152.022 46.0417 152.759 46.215C153.496 46.4317 154.276 46.54 155.099 46.54C156.312 46.54 157.482 46.2583 158.609 45.695C159.736 45.1317 160.776 44.265 161.729 43.095C162.682 41.8817 163.549 40.365 164.329 38.545C165.109 36.6817 165.781 34.4717 166.344 31.915L172.844 1.755H182.334L174.599 46.02H180.449L188.444 0.584997H167.189L159.714 36.075C159.324 37.8517 158.934 39.325 158.544 40.495C158.154 41.665 157.742 42.5967 157.309 43.29C156.876 43.9833 156.399 44.46 155.879 44.72C155.402 44.98 154.882 45.11 154.319 45.11C153.799 45.11 153.301 45.045 152.824 44.915C152.304 44.785 151.806 44.5467 151.329 44.2L150.679 45.305Z" fill="#111111"/>
<path d="M188.632 34.32C188.328 36.14 188.307 37.8083 188.567 39.325C188.827 40.8417 189.347 42.1417 190.127 43.225C190.907 44.265 191.903 45.0883 193.117 45.695C194.373 46.2583 195.825 46.54 197.472 46.54C199.118 46.54 200.678 46.2583 202.152 45.695C203.625 45.1317 204.925 44.3083 206.052 43.225C207.222 42.0983 208.197 40.7983 208.977 39.325C209.8 37.8083 210.363 36.14 210.667 34.32L214.632 11.895C214.935 10.1183 214.957 8.515 214.697 7.085C214.437 5.61167 213.917 4.355 213.137 3.315C212.357 2.275 211.338 1.47333 210.082 0.91C208.825 0.303333 207.373 0 205.727 0C204.123 0 202.585 0.303333 201.112 0.91C199.638 1.47333 198.317 2.275 197.147 3.315C196.02 4.355 195.045 5.61167 194.222 7.085C193.442 8.515 192.9 10.1183 192.597 11.895L188.632 34.32ZM199.032 8.515C199.248 7.345 199.552 6.305 199.942 5.395C200.332 4.485 200.808 3.72667 201.372 3.12C201.935 2.51333 202.563 2.05833 203.257 1.755C203.95 1.40833 204.708 1.235 205.532 1.235C206.355 1.235 207.048 1.38667 207.612 1.69C208.218 1.99333 208.673 2.47 208.977 3.12C209.323 3.72667 209.518 4.485 209.562 5.395C209.648 6.305 209.583 7.345 209.367 8.515L204.102 38.09C203.928 39.26 203.647 40.3 203.257 41.21C202.867 42.12 202.39 42.9 201.827 43.55C201.307 44.1567 200.7 44.6117 200.007 44.915C199.313 45.2183 198.555 45.37 197.732 45.37C196.908 45.37 196.193 45.2183 195.587 44.915C195.023 44.6117 194.568 44.1567 194.222 43.55C193.918 42.9 193.723 42.12 193.637 41.21C193.593 40.3 193.68 39.26 193.897 38.09L199.032 8.515Z" fill="#111111"/>
<path d="M216.434 34.255C216.131 36.1183 216.088 37.8083 216.304 39.325C216.564 40.8417 217.084 42.1417 217.864 43.225C218.644 44.3083 219.663 45.1317 220.919 45.695C222.176 46.2583 223.649 46.54 225.339 46.54C227.679 46.54 229.803 45.9983 231.709 44.915C233.659 43.8317 235.241 42.25 236.454 40.17L235.414 39.715C234.894 40.5383 234.309 41.2967 233.659 41.99C233.009 42.6833 232.294 43.2683 231.514 43.745C230.734 44.1783 229.889 44.525 228.979 44.785C228.113 45.045 227.224 45.175 226.314 45.175C224.364 45.175 222.999 44.5683 222.219 43.355C221.439 42.0983 221.288 40.2133 221.764 37.7L226.899 8.58C227.289 6.28333 228.113 4.52833 229.369 3.315C230.669 2.05833 232.294 1.43 234.244 1.43C235.501 1.43 236.628 1.69 237.624 2.21C238.621 2.68666 239.531 3.445 240.354 4.485L241.329 3.64C240.419 2.42667 239.314 1.51667 238.014 0.91C236.714 0.303333 235.219 0 233.529 0C231.839 0 230.258 0.303333 228.784 0.91C227.354 1.47333 226.054 2.275 224.884 3.315C223.758 4.355 222.804 5.61167 222.024 7.085C221.244 8.55833 220.703 10.1833 220.399 11.96L216.434 34.255Z" fill="#111111"/>
<path d="M249.135 20.475L252.645 0.584997H246.795L238.735 46.02H249.785C251.129 46.02 252.429 45.7383 253.685 45.175C254.985 44.6117 256.155 43.8533 257.195 42.9C258.235 41.9467 259.124 40.8417 259.86 39.585C260.597 38.285 261.095 36.8983 261.355 35.425L262.07 31.33C262.374 29.77 262.352 28.34 262.005 27.04C261.702 25.6967 261.16 24.5483 260.38 23.595C259.6 22.5983 258.604 21.84 257.39 21.32C256.22 20.7567 254.877 20.475 253.36 20.475H249.135ZM255.245 36.66C254.985 38.1333 254.66 39.39 254.27 40.43C253.924 41.4267 253.49 42.25 252.97 42.9C252.45 43.55 251.844 44.0483 251.15 44.395C250.5 44.6983 249.785 44.85 249.005 44.85H244.78L248.94 21.645H252.775C254.379 21.645 255.505 22.36 256.155 23.79C256.849 25.1767 256.935 27.2567 256.415 30.03L255.245 36.66Z" fill="#111111"/>
</svg>
